{
  "accessors": [
    {
      "bufferView": 2,
      "componentType": 5126,
      "count": 2808,
      "max": [
        228.52749633789063,
        -12.471799850463867,
        39.09450149536133
      ],
      "min": [
        189.47239685058594,
        -14.24370002746582,
        -39.09450149536133
      ],
      "type": "VEC3"
    },
    {
      "bufferView": 2,
      "byteOffset": 33696,
      "componentType": 5126,
      "count": 2808,
      "max": [
        0.7173003554344177,
        0.7071068286895752,
        0.7173003554344177
      ],
      "min": [
        -0.7173003554344177,
        -1.0,
        -0.7173003554344177
      ],
      "type": "VEC3"
    },
    {
      "bufferView": 3,
      "componentType": 5126,
      "count": 2808,
      "max": [
        0.7071068286895752,
        0.8137328028678894,
        0.9548494815826416,
        1.0
      ],
      "min": [
        -1.0,
        -0.8132858276367188,
        -1.0,
        -1.0
      ],
      "type": "VEC4"
    },
    {
      "bufferView": 1,
      "componentType": 5126,
      "count": 2808,
      "max": [
        0.9908000230789185,
        0.9994999766349792
      ],
      "min": [
        0.0005000000237487257,
        0.0005000000237487257
      ],
      "type": "VEC2"
    },
    {
      "bufferView": 0,
      "componentType": 5125,
      "count": 11592,
      "type": "SCALAR"
    }
  ],
  "asset": {
    "extras": {
      "author": "AERO3D (https://sketchfab.com/aero3d.ua)",
      "license": "CC-BY-4.0 (http://creativecommons.org/licenses/by/4.0/)",
      "source": "https://sketchfab.com/3d-models/solar-panel-8f094196d83e43fb9865df4c7501a930",
      "title": "Solar Panel"
    },
    "generator": "Sketchfab-12.67.0",
    "version": "2.0"
  },
  "bufferViews": [
    {
      "buffer": 0,
      "byteLength": 46368,
      "name": "floatBufferViews",
      "target": 34963
    },
    {
      "buffer": 0,
      "byteLength": 22464,
      "byteOffset": 46368,
      "byteStride": 8,
      "name": "floatBufferViews",
      "target": 34962
    },
    {
      "buffer": 0,
      "byteLength": 67392,
      "byteOffset": 68832,
      "byteStride": 12,
      "name": "floatBufferViews",
      "target": 34962
    },
    {
      "buffer": 0,
      "byteLength": 44928,
      "byteOffset": 136224,
      "byteStride": 16,
      "name": "floatBufferViews",
      "target": 34962
    }
  ],
  "buffers": [
    {
      "byteLength": 181152,
      "uri": "scene.bin"
    }
  ],
  "images": [
    {
      "uri": "textures/wire_154215229_baseColor.png"
    },
    {
      "uri": "textures/wire_154215229_metallicRoughness.png"
    },
    {
      "uri": "textures/wire_154215229_normal.png"
    }
  ],
  "materials": [
    {
      "doubleSided": true,
      "name": "wire_154215229",
      "normalTexture": {
        "index": 2
      },
      "pbrMetallicRoughness": {
        "baseColorTexture": {
          "index": 0
        },
        "metallicRoughnessTexture": {
          "index": 1
        }
      }
    }
  ],
  "meshes": [
    {
      "name": "Object_0",
      "primitives": [
        {
          "attributes": {
            "NORMAL": 1,
            "POSITION": 0,
            "TANGENT": 2,
            "TEXCOORD_0": 3
          },
          "indices": 4,
          "material": 0,
          "mode": 4
        }
      ]
    }
  ],
  "nodes": [
    {
      "children": [
        1
      ],
      "matrix": [
        1.0,
        0.0,
        0.0,
        0.0,
        0.0,
        -0.7424122095108031,
        -0.669943392276764,
        0.0,
        0.0,
        0.669943392276764,
        -0.7424122095108031,
        0.0,
        0.0,
        -9.916948318481447,
        4.408833503723143,
        1.0
      ],
      "name": "Sketchfab_model"
    },
    {
      "children": [
        2
      ],
      "name": "35de24a99b4b49e1aa0f36951a49d9b3.obj.cleaner.materialmerger.gles"
    },
    {
      "mesh": 0,
      "name": "Object_2"
    }
  ],
  "samplers": [
    {
      "magFilter": 9729,
      "minFilter": 9987,
      "wrapS": 10497,
      "wrapT": 10497
    }
  ],
  "scene": 0,
  "scenes": [
    {
      "name": "Sketchfab_Scene",
      "nodes": [
        0
      ]
    }
  ],
  "textures": [
    {
      "sampler": 0,
      "source": 0
    },
    {
      "sampler": 0,
      "source": 1
    },
    {
      "sampler": 0,
      "source": 2
    }
  ]
}
